<?xml version="1.0" standalone="no"?>
<!DOCTYPE svg PUBLIC "-//W3C//DTD SVG 20010904//EN"
 "http://www.w3.org/TR/2001/REC-SVG-20010904/DTD/svg10.dtd">
<svg version="1.0" xmlns="http://www.w3.org/2000/svg"
 width="172.000000pt" height="35.000000pt" viewBox="0 0 172.000000 35.000000"
 preserveAspectRatio="xMidYMid meet">

<g transform="translate(0.000000,35.000000) scale(0.100000,-0.100000)"
fill="#000000" stroke="none">
<path d="M290 275 l-23 -25 35 0 c24 0 42 8 58 25 l23 25 -35 0 c-24 0 -42 -8
-58 -25z"/>
<path d="M910 230 l-45 -6 48 -5 c27 -2 51 -1 53 3 7 11 -9 14 -56 8z"/>
<path d="M1023 234 c-16 -7 -18 -124 -3 -124 6 0 10 23 10 50 0 54 17 73 45
50 21 -18 19 -41 -5 -47 -23 -6 -27 -23 -6 -23 8 0 18 -9 21 -21 10 -31 18
-15 22 40 1 30 -2 53 -10 59 -16 13 -59 22 -74 16z"/>
<path d="M1203 228 c-10 -13 -43 -98 -43 -111 0 -4 4 -7 9 -7 5 0 17 23 26 51
17 50 27 54 39 13 5 -17 1 -23 -16 -29 -22 -8 -22 -8 5 -12 15 -2 27 -9 27
-14 0 -5 6 -9 14 -9 10 0 9 14 -9 62 -23 65 -35 77 -52 56z"/>
<path d="M1333 234 c-15 -7 -18 -120 -4 -129 6 -3 11 19 13 52 3 51 6 58 25
61 26 4 53 -31 46 -59 -3 -11 -17 -26 -32 -34 l-26 -14 26 -1 c15 0 32 7 39
16 18 20 17 71 -1 89 -16 16 -67 27 -86 19z"/>
<path d="M1487 233 c-4 -3 -7 -33 -7 -65 l0 -58 45 0 c25 0 45 3 45 8 0 4 -15
7 -32 7 -32 0 -33 1 -33 45 0 43 1 45 29 45 16 1 31 6 34 13 4 13 -69 18 -81
5z"/>
<path d="M187 172 c-31 -32 -57 -60 -57 -63 0 -2 19 -3 43 -1 32 3 51 13 80
40 l37 36 38 -37 39 -38 24 20 24 20 -40 40 c-34 36 -44 41 -85 41 -42 0 -50
-4 -103 -58z"/>
<path d="M910 161 c0 -28 5 -51 10 -51 6 0 10 20 10 44 0 25 -4 48 -10 51 -6
4 -10 -13 -10 -44z"/>
<path d="M1515 170 c3 -5 17 -10 31 -10 13 0 24 5 24 10 0 6 -14 10 -31 10
-17 0 -28 -4 -24 -10z"/>
</g>
</svg>
